<svg xmlns="http://www.w3.org/2000/svg" viewBox="0 0 453.26 144"><defs><style>.cls-1{fill:red;}.cls-2{fill:#fff;}</style></defs><title>purepng_logo_fontless</title><g id="Ebene_2" data-name="Ebene 2"><g id="Ebene_1-2" data-name="Ebene 1"><rect class="cls-1" width="74.88" height="144"/><path d="M122.31,107.72V100a19.91,19.91,0,0,1-7.45,6.54,20.79,20.79,0,0,1-9.74,2.4,19,19,0,0,1-9.37-2.3,13.58,13.58,0,0,1-6-6.44Q87.88,96,87.88,88.68V55.87h13.73V79.7q0,10.93.75,13.4A7.39,7.39,0,0,0,105.12,97a8.5,8.5,0,0,0,5.08,1.44,10.86,10.86,0,0,0,6.3-1.93,9.89,9.89,0,0,0,3.81-4.79q1-2.85,1-14V55.87h13.72v51.85Z"/><path d="M163.6,107.72H149.88V55.87h12.74v7.37q3.27-5.22,5.88-6.88a10.83,10.83,0,0,1,5.94-1.66,17.46,17.46,0,0,1,9,2.58l-4.25,12A12,12,0,0,0,172.78,67a7.64,7.64,0,0,0-4.89,1.59q-2,1.59-3.15,5.74T163.6,91.71Z"/><path d="M220.61,91.22l13.67,2.29A22.37,22.37,0,0,1,226,105q-5.69,3.95-14.23,3.94-13.53,0-20-8.84-5.13-7.08-5.13-17.87,0-12.9,6.74-20.19a22.17,22.17,0,0,1,17-7.3q11.58,0,18.27,7.64T235,85.75H200.64q.13,6.1,3.32,9.5a10.38,10.38,0,0,0,7.91,3.39,8.36,8.36,0,0,0,5.42-1.76A10.89,10.89,0,0,0,220.61,91.22Zm.78-13.87q-.15-6-3.08-9.06a9.89,9.89,0,0,0-14.55.18q-2.92,3.27-2.88,8.88Z"/><path d="M247.49,107.72V36.14h23.19q13.19,0,17.19,1.08a18.75,18.75,0,0,1,10.3,7q4.15,5.4,4.15,13.94a23.32,23.32,0,0,1-2.39,11.09,19.59,19.59,0,0,1-6.08,7,21.05,21.05,0,0,1-7.49,3.4,83,83,0,0,1-15,1h-9.43v27Zm14.45-59.47V68.56h7.91q8.55,0,11.43-1.12a9.49,9.49,0,0,0,4.52-3.52,9.6,9.6,0,0,0,1.63-5.56,9.26,9.26,0,0,0-2.29-6.45,10,10,0,0,0-5.81-3.17,68.88,68.88,0,0,0-10.4-.49Z"/><path d="M315.54,107.72V36.14H329.6l29.3,47.8V36.14h13.42v71.58h-14.5L329,61v46.68Z"/><path d="M422.11,81.41V69.34h31.15V97.86q-4.54,4.4-13.16,7.74a47.85,47.85,0,0,1-17.46,3.34,39.22,39.22,0,0,1-19.58-4.71,29.92,29.92,0,0,1-12.54-13.47,43.57,43.57,0,0,1-4.2-19.07A41.22,41.22,0,0,1,391,51.82a31.56,31.56,0,0,1,13.72-13.33q6.88-3.57,17.14-3.57,13.33,0,20.83,5.59A25.23,25.23,0,0,1,452.33,56L438,58.65a15.17,15.17,0,0,0-5.69-8.32,17.18,17.18,0,0,0-10.43-3.06q-9.47,0-15.06,6T401.21,71.1q0,12.75,5.66,19.12a18.92,18.92,0,0,0,14.85,6.37,24.83,24.83,0,0,0,9.1-1.78,31.24,31.24,0,0,0,7.84-4.32V81.41Z"/><path class="cls-2" d="M15.17,105.19V40.77H36.05q11.87,0,15.47,1A16.9,16.9,0,0,1,60.79,48q3.74,4.86,3.73,12.54a21.1,21.1,0,0,1-2.15,10,17.7,17.7,0,0,1-5.47,6.35,18.64,18.64,0,0,1-6.75,3,73.63,73.63,0,0,1-13.49.93H28.18v24.3Zm13-53.53V69.94H35.3c5.13,0,8.55-.33,10.28-1a8.48,8.48,0,0,0,4.07-3.16,8.67,8.67,0,0,0,1.47-5A8.31,8.31,0,0,0,49.05,55a9,9,0,0,0-5.22-2.86,63.12,63.12,0,0,0-9.37-.44Z"/></g></g></svg>